Input #0, mov,mp4,m4a,3gp,3g2,mj2, from 'C:\Users\sulta\OneDrive - Invesense Asset Management Limited\Documents\remotion\benchmarks\.cache\source\whatsapp-video-2026-05-17-at-45031-am-3ef16707.mp4':
  Metadata:
    major_brand     : mp42
    minor_version   : 0
    compatible_brands: mp42isom
  Duration: 00:01:30.50, start: 0.000000, bitrate: 756 kb/s
  Stream #0:0[0x1](und): Video: h264 (Baseline) (avc1 / 0x31637661), yuv420p(tv, bt709, progressive), 576x1024, 692 kb/s, 30 fps, 30 tbr, 600 tbn (default)
  Stream #0:1[0x2](und): Audio: aac (LC) (mp4a / 0x6134706D), 44100 Hz, stereo, fltp, 62 kb/s (default)
Stream mapping:
  Stream #0:0 -> #0:0 (h264 (native) -> wrapped_avframe (native))
Press [q] to stop, [?] for help
Output #0, null, to 'NUL':
  Metadata:
    major_brand     : mp42
    minor_version   : 0
    compatible_brands: mp42isom
    encoder         : Lavf62.12.101
  Stream #0:0(und): Video: wrapped_avframe, yuv420p(tv, bt709, progressive), 576x1024, q=2-31, 200 kb/s, 30 fps, 30 tbn (default)
    Metadata:
      encoder         : Lavc62.28.101 wrapped_avframe
[Parsed_scdet_0 @ 000001e3af431900] lavfi.scd.score: 67.308, lavfi.scd.time: 11.233333
[Parsed_scdet_0 @ 000001e3af431900] lavfi.scd.score: 74.907, lavfi.scd.time: 15.333333
[Parsed_scdet_0 @ 000001e3af431900] lavfi.scd.score: 76.943, lavfi.scd.time: 16.533333
[Parsed_scdet_0 @ 000001e3af431900] lavfi.scd.score: 66.230, lavfi.scd.time: 20.766667
[Parsed_scdet_0 @ 000001e3af431900] lavfi.scd.score: 69.011, lavfi.scd.time: 30.5
[Parsed_scdet_0 @ 000001e3af431900] lavfi.scd.score: 71.940, lavfi.scd.time: 38.666667
[Parsed_scdet_0 @ 000001e3af431900] lavfi.scd.score: 14.410, lavfi.scd.time: 52.6
[Parsed_scdet_0 @ 000001e3af431900] lavfi.scd.score: 32.936, lavfi.scd.time: 58.5
[out#0/null @ 000001e3af431280] video:1124KiB audio:0KiB subtitle:0KiB other streams:0KiB global headers:0KiB muxing overhead: unknown
frame= 2715 fps=0.0 q=-0.0 Lsize=N/A time=00:01:30.50 bitrate=N/A speed= 464x elapsed=0:00:00.19    
